# xmcd CD database file
#
# Track frame offsets:
#	150
#	20196
#	41154
#	69278
#	90280
#	105509
#
# Disc length: 1677 seconds
#
# Revision: 0
# Processed by: cddbd v1.4PL0 Copyright (c) Steve Scherf et al.
# Submitted via: CDex 1.50
#
DISCID=43068b06
DTITLE=Cosmic Dust Devils - Sixer
DYEAR=2003
DGENRE=Country
TTITLE0=Slow Detting Sun
TTITLE1=Damn
TTITLE2=Railroaded
TTITLE3=Alligator Mouth
TTITLE4=Slip Away
TTITLE5=Rain Or Moonshine
EXTD=YEAR: 2003
EXTT0=
EXTT1=
EXTT2=
EXTT3=
EXTT4=
EXTT5=
PLAYORDER=
